<svg width="39" height="39" viewBox="0 0 39 39" fill="none" xmlns="http://www.w3.org/2000/svg">
<path d="M5.18201 12.5521L4.23138 11.6015L5.57075 10.2613C5.30157 10.13 5.00613 10.0608 4.70669 10.0596C3.5928 10.0596 2.68945 10.9629 2.68945 12.0768C2.68945 13.1907 3.5928 14.094 4.70669 14.094C5.82059 14.094 6.72394 13.1907 6.72394 12.0768C6.72268 11.7774 6.65354 11.4819 6.52221 11.2128L5.18201 12.5521Z" fill="#304156"/>
<path d="M5.18201 28.6898L4.23138 27.7392L5.57075 26.399C5.30157 26.2677 5.00613 26.1985 4.70669 26.1973C3.5928 26.1973 2.68945 27.1006 2.68945 28.2145C2.68945 29.3284 3.5928 30.2317 4.70669 30.2317C5.82059 30.2317 6.72394 29.3284 6.72394 28.2145C6.72268 27.9151 6.65354 27.6196 6.52221 27.3505L5.18201 28.6898Z" fill="#304156"/>
<path d="M5.18201 20.621L4.23138 19.6703L5.57075 18.3301C5.30157 18.1988 5.00613 18.1297 4.70669 18.1284C3.5928 18.1284 2.68945 19.0318 2.68945 20.1457C2.68945 21.2596 3.5928 22.1629 4.70669 22.1629C5.82059 22.1629 6.72394 21.2596 6.72394 20.1457C6.72268 19.8462 6.65354 19.5508 6.52221 19.2816L5.18201 20.621Z" fill="#304156"/>
<path d="M30.2586 19.4731C31.4049 19.4756 32.5417 19.6748 33.6207 20.0615V2.66275C33.6207 1.54885 32.7173 0.645508 31.6034 0.645508H2.01724C0.903346 0.645508 0 1.54885 0 2.66275V32.249C0 33.3629 0.903346 34.2662 2.01724 34.2662H21.3445C19.6893 31.1416 19.7938 27.3777 21.6183 24.3491C23.4437 21.3201 26.7226 19.4699 30.2586 19.4731ZM21.5172 22.1627H16.1379V20.8179H21.5172V22.1627ZM21.5172 19.4731H10.0862V18.1283H21.5172V19.4731ZM14.7931 20.8179V22.1627H10.0862V20.8179H14.7931ZM14.7931 12.749V14.0938H10.0862V12.749H14.7931ZM10.0862 11.4041V10.0593H21.5172V11.4041H10.0862ZM25.5517 19.4731H22.8621V18.1283H25.5517V19.4731ZM25.5517 14.0938H16.1379V12.749H25.5517V14.0938ZM29.5862 11.4041H22.8621V10.0593H29.5862V11.4041ZM6.72414 1.99034H8.06897V3.33516H6.72414V1.99034ZM4.03448 1.99034H5.37931V3.33516H4.03448V1.99034ZM1.34483 1.99034H2.68966V3.33516H1.34483V1.99034ZM1.34483 4.67999H32.2759V6.02482H1.34483V4.67999ZM8.06897 28.2145C8.07359 29.761 7.02588 31.1122 5.52682 31.4927C4.02818 31.8737 2.46272 31.1861 1.72852 29.8249C0.994962 28.4641 1.28053 26.778 2.42195 25.7349C3.56379 24.6919 5.26878 24.5586 6.55814 25.4124L8.26607 23.7047L9.21669 24.6553L7.50897 26.3632C7.87397 26.9117 8.06897 27.5557 8.06897 28.2145ZM7.50897 18.2943C8.46443 19.7383 8.17151 21.6713 6.83046 22.7669C5.48963 23.8625 3.53669 23.7644 2.31247 22.5399C1.08805 21.3157 0.989919 19.3628 2.08553 18.0219C3.18115 16.6809 5.11413 16.388 6.55814 17.3434L8.26607 15.6357L9.21669 16.5863L7.50897 18.2943ZM7.50897 10.2253C8.46443 11.6693 8.17151 13.6023 6.83046 14.6979C5.48963 15.7935 3.53669 15.6954 2.31247 14.471C1.08805 13.2468 0.989919 11.2938 2.08553 9.95298C3.18115 8.61193 5.11413 8.31901 6.55814 9.27447L8.26607 7.56675L9.21669 8.51737L7.50897 10.2253ZM14.7931 30.2317H10.0862V28.8869H14.7931V30.2317ZM18.8276 30.2317H16.1379V28.8869H18.8276V30.2317ZM18.8276 27.5421H10.0862V26.1972H18.8276V27.5421Z" fill="#304156"/>
<path d="M30.2585 20.8179C25.4307 20.8179 21.5171 24.7315 21.5171 29.5592C21.5171 34.387 25.4307 38.3006 30.2585 38.3006C35.0862 38.3006 38.9998 34.387 38.9998 29.5592C38.9944 24.7338 35.0839 20.8233 30.2585 20.8179ZM27.3717 33.3966C27.2456 33.5227 27.0748 33.5937 26.8964 33.5937C26.8603 33.5937 26.8245 33.5908 26.7888 33.5849C26.5753 33.5504 26.3917 33.4153 26.2946 33.2218L24.9498 30.5321L26.1534 29.9312L27.0805 31.7864L34.4901 24.377L35.4407 25.3277L27.3717 33.3966Z" fill="#304156"/>
</svg>
