<svg width="40" height="40" viewBox="0 0 40 40" xmlns="http://www.w3.org/2000/svg">
<path d="M37.8751 34.1285V11.5256C37.8751 10.1763 36.7964 9.01408 35.4422 9.01408H26.5656V5.117C26.5656 3.7677 25.4731 2.62911 24.1189 2.62911H23.5497V2.11962C23.5497 0.977465 22.5963 0 21.4499 0H7.28919C6.14278 0 5.07761 0.977465 5.07761 2.11962V2.62911H4.62014C3.26582 2.62911 2.06173 3.7677 2.06173 5.117V34.1285C0.930776 34.5117 0 35.6518 0 36.9953C0 38.652 1.40408 40 3.06696 40H36.9956C38.6585 40 40 38.652 40 36.9953C39.9998 35.6518 39.0061 34.5117 37.8751 34.1285ZM17.7064 36.8075H10.9207V30.6103H17.7064V36.8075ZM23.1727 25.9155H5.45441V22.5352H23.1727V25.9155ZM23.1727 18.216H5.45441V14.8357H23.1727V18.216ZM23.1727 10.5164H5.45441V7.13615H23.1727V10.5164ZM34.6707 25.9155H28.0735V22.5352H34.6707V25.9155ZM34.6707 18.216H28.0735V14.8357H34.6707V18.216Z"/>
</svg>
