<svg width="40" height="40" viewBox="0 0 185 185" xmlns="http://www.w3.org/2000/svg">
<path d="M179.58 109.121H148.867V92.8613C148.867 89.8677 146.441 87.4414 143.447 87.4414H97.9199V75.8789H114.18C117.173 75.8789 119.6 73.4526 119.6 70.459C119.6 67.4653 117.173 65.0391 114.18 65.0391H107.931L106.125 54.1992H128.633C131.626 54.1992 134.053 51.773 134.053 48.7793V5.41992C134.053 2.42626 131.626 0 128.633 0H56.3672C53.3735 0 50.9473 2.42626 50.9473 5.41992V48.7793C50.9473 51.773 53.3735 54.1992 56.3672 54.1992H78.8754L77.0687 65.0391H70.8203C67.8267 65.0391 65.4004 67.4653 65.4004 70.459C65.4004 73.4526 67.8267 75.8789 70.8203 75.8789H87.0801V87.4414H41.5527C38.5591 87.4414 36.1328 89.8677 36.1328 92.8613V109.121H5.41992C2.42626 109.121 0 111.547 0 114.541V157.9C0 160.894 2.42626 163.32 5.41992 163.32H27.9281L26.1215 174.16H19.873C16.8794 174.16 14.4531 176.586 14.4531 179.58C14.4531 182.574 16.8794 185 19.873 185H63.2324C66.2261 185 68.6523 182.574 68.6523 179.58C68.6523 176.586 66.2261 174.16 63.2324 174.16H56.984L55.1773 163.32H77.6855C80.6792 163.32 83.1055 160.894 83.1055 157.9V114.541C83.1055 111.547 80.6792 109.121 77.6855 109.121H46.9727V98.2812H138.027V109.121H107.314C104.321 109.121 101.895 111.547 101.895 114.541V157.9C101.895 160.894 104.321 163.32 107.314 163.32H129.823L128.016 174.16H121.768C118.774 174.16 116.348 176.586 116.348 179.58C116.348 182.574 118.774 185 121.768 185H165.127C168.121 185 170.547 182.574 170.547 179.58C170.547 176.586 168.121 174.16 165.127 174.16H158.879L157.072 163.32H179.58C182.574 163.32 185 160.894 185 157.9V114.541C185 111.547 182.574 109.121 179.58 109.121Z"/>
</svg>
