<svg width="39" height="39" viewBox="0 0 39 39" xmlns="http://www.w3.org/2000/svg">
<path d="M35.8487 15.1811H34.4519C34.1037 15.1811 33.5522 14.7578 33.3172 14.1502C33.2344 13.9361 33.1455 13.7216 33.0531 13.5126C32.7897 12.917 32.8801 12.228 33.1261 11.9825L34.1148 10.995C35.3436 9.7661 35.3436 7.76706 34.1152 6.53858L32.4638 4.88718C31.8674 4.29073 31.0758 3.96249 30.2346 3.96249C29.3933 3.96249 28.6018 4.2908 28.0056 4.88718L27.0179 5.87484C26.8741 6.01857 26.5827 6.10793 26.2574 6.10793C25.9937 6.10793 25.72 6.05122 25.4868 5.94807C25.2776 5.85571 25.0635 5.76702 24.8502 5.6844C24.2423 5.44931 23.8188 4.89751 23.8188 4.54948V3.15128C23.8187 1.41385 22.4051 0 20.6676 0H18.3322C16.5945 0 15.1811 1.41365 15.1811 3.15128V4.54941C15.1811 4.89744 14.7576 5.44898 14.1499 5.68413C13.9373 5.76629 13.7231 5.85498 13.5134 5.9476C13.2801 6.05075 13.0061 6.10746 12.7422 6.10746C12.4168 6.10746 12.1252 6.01817 11.9814 5.87457L10.9933 4.88685C10.3977 4.29127 9.60598 3.96296 8.76425 3.96296C7.92252 3.96296 7.13143 4.29127 6.53659 4.88765L4.88605 6.53832C3.65751 7.76686 3.65751 9.7659 4.88605 10.9944L5.87377 11.9821C6.11965 12.228 6.21041 12.9176 5.9472 13.5138C5.85505 13.7228 5.76636 13.9369 5.68393 14.1504C5.44904 14.7578 4.89731 15.1811 4.54881 15.1811H3.15108C1.41345 15.1811 0 16.5947 0 18.3324V20.6678C0 22.4053 1.41365 23.8189 3.15108 23.8189H4.54861C4.89691 23.8189 5.44884 24.2422 5.68353 24.8497C5.76589 25.063 5.85458 25.2771 5.94674 25.486C6.21001 26.0823 6.11925 26.7718 5.87331 27.0178L4.88558 28.0054C3.65704 29.2338 3.65704 31.2338 4.88518 32.4633L6.53679 34.1151C7.13217 34.7103 7.92332 35.0383 8.76485 35.0383C9.60631 35.0383 10.3975 34.7105 10.9929 34.1151L11.9812 33.1261C12.127 32.9802 12.4113 32.8932 12.7414 32.8932C13.0051 32.8932 13.2787 32.9498 13.5122 33.0529C13.7193 33.1447 13.9338 33.2336 14.1493 33.317C14.7572 33.552 15.1805 34.1036 15.1805 34.4517V35.8486C15.1805 37.586 16.5941 38.9999 18.3316 38.9999H20.6671C22.4047 38.9999 23.8182 37.5863 23.8182 35.8486V34.4517C23.8182 34.1036 24.2415 33.552 24.8488 33.3174C25.0621 33.2351 25.2762 33.1464 25.4853 33.054C25.7185 32.9511 25.9922 32.8944 26.2558 32.8944C26.5816 32.8944 26.8733 32.9836 27.0169 33.1274L28.0046 34.1151C28.6017 34.7105 29.3934 35.0383 30.2348 35.0383C30.3259 35.0383 30.418 35.0341 30.5087 35.0261C31.6594 34.9262 32.6745 33.9063 33.2198 33.3585L33.2888 33.2894L34.1144 32.4637C35.3408 31.2342 35.3408 29.2349 34.115 28.0062L33.1266 27.0179C32.8808 26.772 32.7901 26.0824 33.0532 25.4859C33.1459 25.2764 33.2344 25.0623 33.3165 24.8496C33.5514 24.2421 34.103 23.8189 34.4509 23.8189H35.8479C37.5856 23.8189 38.999 22.4052 38.999 20.6675V18.3323C38.9998 16.5947 37.5862 15.1811 35.8487 15.1811ZM28.0264 19.5001C28.0264 24.2018 24.2015 28.0268 19.4999 28.0268C14.7983 28.0268 10.9734 24.2018 10.9734 19.5001C10.9734 14.7986 14.7984 10.9736 19.4999 10.9736C24.2015 10.9736 28.0264 14.7985 28.0264 19.5001Z"/>
</svg>
