<svg width="260" height="260" viewBox="0 0 260 260" fill="none" xmlns="http://www.w3.org/2000/svg">
<rect x="50" y="10" width="200" height="200" stroke="black" stroke-width="20"/>
<path d="M10 50V250H210" stroke="black" stroke-width="20"/>
<path d="M145.6 41.2C153.6 41.2 160.6 42.8 166.6 46C172.733 49.2 177.467 53.6 180.8 59.2C184.133 64.6667 185.8 70.8667 185.8 77.8C185.8 85.9333 183.933 93.7333 180.2 101.2C176.6 108.667 171 116.733 163.4 125.4C155.8 134.067 144.267 146.133 128.8 161.6H189L186.8 177H107.8V162.4C125.667 143.867 138.333 130.333 145.8 121.8C153.267 113.133 158.6 105.6 161.8 99.2C165 92.8 166.6 85.9333 166.6 78.6C166.6 71.6667 164.6 66.2667 160.6 62.4C156.6 58.4 151.267 56.4 144.6 56.4C139.133 56.4 134.333 57.5333 130.2 59.8C126.067 62.0667 121.667 65.8 117 71L105 61.4C110.467 54.6 116.533 49.5333 123.2 46.2C129.867 42.8667 137.333 41.2 145.6 41.2Z" fill="black"/>
</svg>
