<svg width="260" height="260" viewBox="0 0 260 260" fill="none" xmlns="http://www.w3.org/2000/svg">
<rect x="50" y="10" width="200" height="200" stroke="black" stroke-width="20"/>
<path d="M10 50V250H210" stroke="black" stroke-width="20"/>
<path d="M145 41.2C153.267 41.2 160.333 42.7333 166.2 45.8C172.2 48.8667 176.733 53 179.8 58.2C183 63.4 184.6 69.0667 184.6 75.2C184.6 83.3333 182.2 90.0667 177.4 95.4C172.733 100.6 166.467 104.133 158.6 106C167.533 106.8 174.8 110 180.4 115.6C186 121.2 188.8 128.8 188.8 138.4C188.8 146.133 186.933 153.133 183.2 159.4C179.467 165.667 174.133 170.6 167.2 174.2C160.267 177.667 152.267 179.4 143.2 179.4C135.067 179.4 127.6 177.933 120.8 175C114 171.933 108.067 167.4 103 161.4L114 151.2C118.4 155.733 122.867 159.067 127.4 161.2C132.067 163.333 137.133 164.4 142.6 164.4C151 164.4 157.6 162.067 162.4 157.4C167.2 152.6 169.6 146.2 169.6 138.2C169.6 129.4 167.333 123.2 162.8 119.6C158.267 116 151.667 114.2 143 114.2H133L135.2 100H142C148.933 100 154.667 97.9333 159.2 93.8C163.867 89.6667 166.2 83.8667 166.2 76.4C166.2 70.1333 164.2 65.2 160.2 61.6C156.2 57.8667 150.8 56 144 56C138.8 56 134 56.9333 129.6 58.8C125.333 60.6667 120.933 63.7333 116.4 68L106.8 57C118.133 46.4667 130.867 41.2 145 41.2Z" fill="black"/>
</svg>
