<svg width="39" height="48" viewBox="0 0 39 48" xmlns="http://www.w3.org/2000/svg">
<path d="M11.2889 3.1877V0.786639C11.2889 0.352793 11.6431 0 12.0781 0H26.9216C27.3569 0 27.7109 0.353039 27.7109 0.786639V3.1877C27.7109 3.62154 27.3567 3.97434 26.9216 3.97434H12.0784C11.6431 3.97458 11.2889 3.62154 11.2889 3.1877ZM39 5.74865V43.0316C39 45.7711 36.7638 48 34.0153 48H4.98475C2.23618 48 0 45.7711 0 43.0316V5.74865C0 3.00908 2.23618 0.780233 4.98475 0.780233H7.58155C7.58155 0.78245 7.5813 0.784668 7.5813 0.786639V3.1877C7.5813 5.65922 9.59873 7.66979 12.0781 7.66979H26.9216C29.4013 7.66979 31.4185 5.65922 31.4185 3.1877V0.786639C31.4185 0.784422 31.4182 0.782204 31.4182 0.780233H34.015C36.7638 0.780233 39 3.00908 39 5.74865ZM13.2628 27.457C12.3913 26.9216 11.2491 27.1916 10.712 28.0603L8.95905 30.8945L8.05414 30.184C7.25034 29.5525 6.08417 29.6908 5.45091 30.4924C4.81741 31.2943 4.95607 32.4559 5.76038 33.0874L8.29909 35.0802C8.62833 35.3386 9.03295 35.4761 9.44598 35.4761C9.55374 35.4761 9.66225 35.4667 9.77002 35.4478C10.2903 35.3556 10.7469 35.0464 11.0242 34.5981L13.8682 29.9994C14.4055 29.1308 14.1344 27.9926 13.2628 27.457ZM13.2628 14.1533C12.3913 13.6177 11.2491 13.8883 10.712 14.7567L8.95905 17.5909L8.05414 16.8803C7.25034 16.2492 6.08417 16.3871 5.45091 17.1888C4.81741 17.9907 4.95607 19.1523 5.76038 19.7837L8.29909 21.7766C8.62833 22.035 9.03295 22.1725 9.44598 22.1725C9.55374 22.1725 9.66225 22.1631 9.77002 22.1441C10.2903 22.052 10.7469 21.7428 11.0242 21.2944L13.8682 16.6961C14.4055 15.8271 14.1344 14.6889 13.2628 14.1533ZM32.462 33.6286C32.462 32.6079 31.6323 31.7809 30.6082 31.7809H18.4967C17.4729 31.7809 16.6429 32.6079 16.6429 33.6286C16.6429 34.6493 17.4729 35.4764 18.4967 35.4764H30.6082C31.6323 35.4764 32.462 34.6493 32.462 33.6286ZM32.462 20.325C32.462 19.3043 31.6323 18.4773 30.6082 18.4773H18.4967C17.4729 18.4773 16.6429 19.3043 16.6429 20.325C16.6429 21.3457 17.4729 22.1727 18.4967 22.1727H30.6082C31.6323 22.1727 32.462 21.3457 32.462 20.325Z"/>
</svg>
